# xmcd CD database file
#
# Track frame offsets:
#	225
#	9825
#	24914
#	37272
#	49240
#	60098
#	70192
#	80200
#	92119
#	100130
#	105962
#	115059
#	123236
#	133945
#	146806
#	163539
#	177174
#	190665
#
# Disc length: 2702 seconds
#
# Revision: 1
# Processed by: cddbd v1.5.2PL0 Copyright (c) Steve Scherf et al.
# Submitted via: CDex 1.50
#
DISCID=ea0a8b12
DTITLE=Johnny Cash - Johnny Cash Vol. 3
DYEAR=1900
DGENRE=Country
TTITLE0=If i were a Carpenter
TTITLE1=A Boy named Sue
TTITLE2=Peace in the Valley
TTITLE3=Jackson
TTITLE4=Wide open Road
TTITLE5=Get Rhythm
TTITLE6=Born to loose
TTITLE7=Doin´my Time
TTITLE8=I can´t help it
TTITLE9=My Treasure
TTITLE10=Two timin´Woman
TTITLE11=Sugartime
TTITLE12=Train of Love
TTITLE13=San Quentin
TTITLE14=Ghost Riders in the Sky
TTITLE15=It ain´t me Babe
TTITLE16=Don´t take your Guns to Town
TTITLE17=Understand your Man
EXTD=
EXTT0=
EXTT1=
EXTT2=
EXTT3=
EXTT4=
EXTT5=
EXTT6=
EXTT7=
EXTT8=
EXTT9=
EXTT10=
EXTT11=
EXTT12=
EXTT13=
EXTT14=
EXTT15=
EXTT16=
EXTT17=
PLAYORDER=
